<svg width="2000" height="1333" viewBox="0 0 2000 1333" fill="none" xmlns="http://www.w3.org/2000/svg">
<path d="M1575.79 151.699C1636.1 189.654 1687.29 295.718 1621.3 419.169C1621.3 419.169 1731.83 374.065 1782.39 464.53" stroke="#181818" stroke-width="4" stroke-linecap="round" stroke-linejoin="round"/>
<path d="M1784.09 418.357C1805.56 427.795 1824.49 449.243 1834.25 476.961" stroke="#181818" stroke-width="4" stroke-linecap="round" stroke-linejoin="round"/>
<path d="M1685.91 310.748C1685.1 329.773 1678.03 349.515 1673.23 358.222" stroke="#181818" stroke-width="4" stroke-linecap="round" stroke-linejoin="round"/>
<path d="M1668.44 192.416L1684.61 162.342" stroke="#181818" stroke-width="4" stroke-linecap="round" stroke-linejoin="round"/>
<path d="M1689.81 196.234L1726.22 170.141" stroke="#181818" stroke-width="4" stroke-linecap="round" stroke-linejoin="round"/>
<path d="M165.75 518.151C187.618 519.803 211.152 520.128 259.492 478.612C343.851 406.116 385.827 395.581 391.758 429.189C396.971 458.843 352.178 504.976 333.438 534.63C293.75 597.405 303.648 640.234 349.064 628.535C393.843 617.012 420.925 575.821 458.419 635.129" stroke="#221F1F" stroke-width="4" stroke-linecap="round" stroke-linejoin="round"/>
<path d="M1065.15 849.692H637.14L473.27 993.075C454.922 1009.01 428.626 1005.69 413.948 986.44C407.841 978.478 404.781 968.512 404.781 957.896V458.678C404.781 242.934 566.2 67.6763 764.923 67.6763H1065.15C1263.87 67.6763 1425.29 242.934 1425.29 458.678C1425.91 674.435 1264.48 849.692 1065.15 849.692Z" fill="#66AB9A"/>
<path d="M900.645 644.58C1002.85 644.58 1085.71 561.724 1085.71 459.533C1085.71 357.341 1002.85 274.485 900.645 274.485C798.453 274.485 715.598 357.341 715.598 459.533C715.598 561.724 798.453 644.58 900.645 644.58Z" fill="#FFA0DA"/>
<path d="M999.439 434.886C997.327 428.089 990.949 423.621 983.935 423.621C983.718 423.621 983.718 423.417 983.718 423.417C986.061 419.585 986.697 415.13 985.424 410.879C983.298 404.081 976.921 399.613 969.92 399.613C969.704 399.613 969.704 399.41 969.704 399.41C972.466 394.522 972.886 388.564 970.123 383.689C966.305 377.095 958.438 374.116 951.22 376.242L909.786 388.361C895.135 392.612 880.89 398.773 867.715 406.41C862.624 409.389 860.281 415.334 861.771 420.858L885.995 503.727C886.848 506.693 888.974 509.455 891.723 510.944C905.534 519.015 947.822 544.092 953.983 546.001C982.879 549.617 952.493 504.783 946.549 494.804C946.549 494.587 946.549 494.587 946.752 494.587C950.584 493.518 995.201 480.356 995.201 480.356C1010.49 476.524 1011.77 454.006 996.04 449.971C995.837 449.971 995.837 449.754 996.04 449.551C999.656 445.719 1001.15 439.978 999.439 434.886Z" fill="white"/>
<path d="M874.31 514.347L844.994 413.861C843.504 408.973 838.4 406.211 833.511 407.483L798.455 417.68C793.58 419.169 790.818 424.26 792.09 429.149L821.406 529.851C822.896 534.739 827.987 537.501 832.875 536.228L868.149 525.816C873.037 524.34 876.219 519.018 874.31 514.347Z" fill="white"/>
<path d="M1552.57 930.283L1507.43 680.944C1507.43 680.944 1507.43 680.849 1507.34 680.849C1484.16 673.253 1427.23 673.727 1410.6 677.153C1343.71 693.496 1295.91 714.403 1266.94 771.125C1266.94 771.125 1266.94 771.125 1266.94 771.22C1267.13 773.305 1280.91 900.155 1281.29 903.58C1281.29 903.58 1281.29 903.675 1281.39 903.675L1344.47 909.565H1344.57L1363.67 938.258H1363.77L1552.47 930.377C1552.47 930.377 1552.57 930.377 1552.57 930.283Z" fill="white"/>
<path d="M1159.86 1177.06C1202.41 1175.63 1249.17 1174.96 1271.31 1133.82V1133.73C1270.74 1132.68 1260.19 1112.16 1237.96 1101.32C1228.93 1096.95 1195.01 1095.72 1193.3 1095.72C1193.3 1095.72 1193.21 1095.72 1193.21 1095.81C1191.49 1100.85 1190.54 1103.88 1190.35 1104.37C1190.35 1104.37 1190.35 1104.46 1190.25 1104.46C1159.29 1105.32 1121.09 1109.88 1107.87 1125.93C1096 1131.34 1092.29 1138.67 1094.1 1145.89V1145.98C1093.53 1146.45 1086.59 1153.1 1090.39 1157.48C1095.33 1164.12 1109.29 1161 1120.41 1159.67C1135.33 1157.48 1146.26 1156.05 1148.74 1155.77C1148.83 1155.77 1148.93 1155.86 1148.83 1155.96C1146.07 1157.38 1133.06 1164.8 1134.39 1171.54C1135.05 1175.05 1143.89 1177.06 1159.86 1177.06Z" fill="#E5AC95"/>
<path d="M1296.01 1087.25C1296.01 1087.25 1296.1 1087.25 1296.1 1087.15C1303.9 1070.24 1310.74 1052.85 1316.53 1035.28C1339.43 963.539 1344.56 911.272 1344.66 909.85C1343.52 908.144 1289.26 821.768 1267.03 771.315C1267.03 771.22 1266.93 771.22 1266.84 771.315C1244.89 816.826 1239.66 913.845 1227.6 973.234C1224.46 989.578 1219.53 1009.43 1209.36 1044.31V1044.4C1209.64 1044.88 1212.68 1049.25 1212.87 1049.35C1218.95 1052 1293.26 1086.01 1296.01 1087.25Z" fill="#8B3C6C"/>
<path d="M1271.4 1133.63C1280.43 1118.71 1288.79 1103.12 1296 1087.25V1087.16L1209.45 1044.51C1209.36 1044.51 1209.36 1044.51 1209.36 1044.6C1201.84 1069.77 1195.19 1090.02 1193.3 1095.72V1095.81C1195.86 1097.04 1268.64 1132.59 1271.3 1133.82C1271.3 1133.73 1271.3 1133.73 1271.4 1133.63Z" fill="black"/>
<path d="M1373.27 757.912C1385.43 757.912 1396.74 753.362 1406.04 744.615C1429.9 722.286 1422.48 699.199 1410.89 677.629C1410.79 677.44 1405 666.133 1397.02 651.401C1388.08 634.962 1371.55 619.472 1360.91 603.886C1344.66 580.231 1332.21 563.413 1303.9 563.413C1262.28 561.802 1219.23 599.052 1233.77 640.473C1238.43 653.012 1243.66 661.38 1248.79 669.545C1252.2 674.962 1255.44 680.093 1258.3 686.173C1269.51 711.833 1289.64 741.284 1324.81 723.613H1324.9C1327.84 729.03 1331.08 734.541 1335.07 739.483C1343.43 749.747 1355.02 757.722 1373.27 757.912Z" fill="#E5AC95"/>
<path d="M1367.27 659.298C1386.47 659.298 1396.17 652.162 1396.93 651.499V651.404C1388.56 636.103 1376.4 614.627 1365.47 598.663C1349.22 575.007 1333.54 555.346 1305.13 555.346C1278.15 555.251 1251.73 570.823 1238.53 595.061C1230.06 610.457 1228.26 626.516 1233.49 640.287L1233.58 640.382C1235.2 640.192 1262.56 637.051 1280.15 618.053H1280.25C1289.36 628.601 1313.5 637.159 1315.11 637.728C1315.21 637.728 1315.21 637.728 1315.21 637.633C1315.68 635.819 1323.47 608.642 1341.06 608.642C1364.71 608.927 1366.99 643.902 1354.07 658.052C1353.97 658.147 1354.07 658.242 1354.16 658.242C1358.82 658.905 1363.2 659.298 1367.27 659.298Z" fill="#A56250"/>
<path d="M1234.72 1212.3C1247.84 1212.3 1263.22 1210.41 1280.34 1206.7C1316.91 1198.82 1457.45 933.812 1461.54 926.013C1461.54 925.918 1461.54 925.918 1461.45 925.918L1363.67 938.362C1362.44 938.931 1281.38 974.759 1195.48 1056.1C1156.52 1094.49 1152.34 1131.83 1165.27 1164.52C1167.92 1171.36 1171.44 1177.91 1175.43 1184.37C1191.2 1207.17 1207.35 1211.74 1234.72 1212.3Z" fill="#66AB9A"/>
<path d="M1319.39 1265.33C1347.04 1264.95 1434.18 1243.95 1499.25 1228.65C1520.35 1223.7 1538.89 1219.33 1552.66 1216.39C1552.66 1216.39 1552.75 1216.39 1552.75 1216.3C1553.51 1213.34 1589.53 1083.18 1589.72 1082.42C1594.76 1072.91 1598.17 1062.84 1600.46 1052.77C1602.16 1029.3 1604.17 1011.34 1597.69 990.817C1596.65 987.486 1595.13 984.168 1593.81 980.837C1584.11 956.803 1567.2 934.19 1543.73 915.652C1543.73 915.652 1543.73 915.652 1543.64 915.652C1541.35 915.937 1429.04 930.1 1427.32 930.29C1391.13 954.514 1246.69 1083.08 1238.62 1151.21C1224.74 1219.82 1262.56 1262.94 1319.39 1265.33Z" fill="#66AB9A"/>
<path d="M1597.88 1052.86C1598.75 1052.86 1599.5 1052.86 1600.36 1052.77C1600.36 1052.77 1600.45 1052.77 1600.45 1052.67C1604.92 1032.14 1603.97 1010.87 1597.69 990.817C1597.69 990.722 1597.6 990.722 1597.6 990.722L1556.74 999.849C1556.65 999.849 1556.65 999.943 1556.65 999.943L1562.06 1023.98C1565.77 1040.8 1580.87 1052.86 1597.88 1052.86Z" fill="#ABB9B5"/>
<path d="M1552.75 1216.29C1585.34 1209.26 1590.66 1206.03 1613.84 1205.17C1629.71 1205.27 1647.48 1209.45 1665.73 1211.82C1674.85 1213.25 1684.45 1211.82 1692.53 1207.64C1692.62 1207.64 1692.62 1207.54 1692.53 1207.54C1691.47 1206.03 1676 1183.6 1668.1 1176.01C1638.27 1147.4 1579.45 1099.14 1577.27 1097.42H1577.18C1569.66 1104.74 1556.55 1115.1 1536.59 1123.08C1536.59 1123.08 1536.59 1123.08 1536.5 1123.08C1536.03 1124.03 1526.05 1145.41 1530.61 1171.82C1533.66 1188.93 1551.8 1215.06 1552.75 1216.29Z" fill="#8B3C6C"/>
<path d="M1692.72 1207.55C1698.42 1204.71 1703.46 1200.43 1707.44 1195.11V1195.01L1589.81 1082.51C1589.81 1082.51 1589.72 1082.51 1589.62 1082.51C1589.15 1083.37 1585.34 1089.45 1577.27 1097.23V1097.33C1580.4 1100.28 1689.96 1205.09 1692.53 1207.45C1692.63 1207.55 1692.63 1207.55 1692.72 1207.55Z" fill="white"/>
<path d="M1499.35 1228.55C1517.5 1224.37 1535.46 1220.29 1552.65 1216.3C1552.75 1216.3 1552.75 1216.2 1552.75 1216.2C1552.18 1213.15 1537.26 1126.7 1536.69 1123.18C1536.69 1123.08 1536.6 1123.08 1536.6 1123.08C1520.73 1129.45 1502.96 1133.44 1483.87 1134.96C1483.77 1134.96 1483.77 1135.05 1483.77 1135.05C1483.96 1136.19 1485.67 1146.64 1487.94 1160.33C1492.41 1187.32 1498.87 1226.28 1499.35 1228.46C1499.25 1228.55 1499.35 1228.55 1499.35 1228.55Z" fill="#ABB9B5"/>
<path d="M1325.66 885.447C1327.84 885.447 1329.84 884.973 1331.45 884.011L1369.46 862.834C1371.55 861.683 1372.78 859.977 1372.97 857.986C1373.16 855.887 1372.21 853.612 1370.22 851.906L1302.67 791.379C1299.05 787.954 1291.93 786.816 1287.46 789.375L1249.45 810.566C1244.89 813.044 1244.79 818.258 1248.69 821.494L1316.25 882.021C1318.63 884.201 1322.14 885.447 1325.66 885.447Z" fill="#1F2221"/>
<path d="M1267.22 825.571C1273.77 825.571 1273.2 818.449 1267.41 816.066C1264.85 814.739 1260.38 814.833 1259.15 817.487C1257.33 821.008 1263.03 825.856 1267.22 825.571Z" fill="black"/>
<path d="M1276.73 831.093C1279.38 831.093 1279.09 828.236 1276.82 827.193C1275.78 826.625 1273.96 826.72 1273.49 827.762C1272.73 829.279 1275.11 831.188 1276.73 831.093Z" fill="black"/>
<path d="M1428.57 832.126C1397.68 827.373 1364.62 822.999 1340.77 823.473C1339.34 823.473 1338.1 824.15 1338.77 825.477C1341.72 831.273 1356.53 840.196 1356.53 840.196C1358.06 840.873 1357.78 842.958 1356.34 843.906C1352.55 846.384 1344.66 850.27 1331.74 850.934C1322.52 851.611 1287.56 851.611 1282.33 851.218C1282.33 851.218 1282.33 851.218 1282.23 851.218C1273.87 858.354 1282.14 866.424 1288.5 869.945C1288.6 870.04 1288.69 870.04 1288.79 870.134C1287.08 874.034 1286.99 877.636 1288.5 880.777C1291.46 886.762 1299.72 889.132 1300.57 889.416C1300.66 889.416 1300.66 889.511 1300.57 889.511C1293.92 902.632 1311.59 907.29 1316.06 907.669C1316.06 907.669 1316.15 907.669 1316.15 907.764C1316.82 916.877 1333.45 916.972 1343.42 917.27C1367.36 917.27 1399.01 911.461 1399.48 911.366C1399.67 911.461 1404.62 913.749 1412.89 917.459H1412.98C1414.03 916.498 1433.8 897.5 1438.25 875.551C1442.06 857.217 1430.18 835.457 1428.57 832.126Z" fill="#E5AC95"/>
<path d="M1569.85 960.777C1660.89 960.398 1644.26 872.41 1607.58 797.544C1607.48 797.449 1582.59 779.48 1581.06 778.438C1581.06 778.438 1580.97 778.343 1581.06 778.343C1581.73 777.3 1589.62 763.719 1580.5 749.745C1564.63 725.331 1548.38 705.941 1537.26 697.288C1528.34 690.45 1518.36 685.129 1507.71 681.337H1507.62C1494.89 703.666 1494.89 742.528 1499.35 777.869C1503.06 807.523 1509.99 834.591 1514.93 847.428C1514.93 847.522 1514.93 847.522 1514.84 847.522C1513.23 847.143 1500.59 844.571 1482.72 841.348C1482.72 841.348 1482.62 841.348 1482.62 841.443L1463.53 879.925L1464.95 938.259C1464.95 938.259 1464.95 938.353 1465.05 938.353C1507.05 953.275 1542.3 960.777 1569.85 960.777Z" fill="#8B3C6C"/>
<path d="M1482.53 841.452C1462.4 837.742 1444.82 834.695 1428.67 832.136C1428.57 832.136 1428.57 832.136 1428.57 832.231L1412.99 917.469C1412.99 917.469 1412.99 917.564 1413.08 917.564C1424.96 922.98 1443.58 930.861 1464.86 938.457C1464.96 938.457 1464.96 938.457 1464.96 938.363C1465.62 934.95 1481.96 844.769 1482.63 841.547C1482.63 841.452 1482.63 841.452 1482.53 841.452Z" fill="black"/>
<path d="M1596.74 799.444C1600.45 799.444 1604.07 798.876 1607.48 797.644C1607.58 797.644 1607.58 797.549 1607.58 797.549C1599.51 781.11 1590.48 765.051 1580.59 749.845C1580.59 749.845 1580.5 749.75 1580.5 749.845L1556.75 764.388C1556.75 764.388 1556.65 764.482 1556.75 764.482C1567.1 781.016 1573.66 799.16 1596.74 799.444Z" fill="white"/>
<path d="M1107.78 1125.82C1123.27 1120.31 1160.04 1116.33 1160.04 1116.33" stroke="black" stroke-width="4" stroke-linecap="round" stroke-linejoin="round"/>
<path d="M1094.01 1145.79C1109.48 1140.28 1131.34 1135.62 1158.71 1133.82" stroke="black" stroke-width="4" stroke-linecap="round" stroke-linejoin="round"/>
<path d="M1483.68 1135.15C1443.48 1139.71 1370.98 1144.94 1370.98 1144.94" stroke="black" stroke-width="4" stroke-linecap="round" stroke-linejoin="round"/>
<path d="M1361.67 985.493C1312.45 1032.91 1249.45 1096.57 1237.67 1151.11C1232.64 1174.29 1234.06 1194.25 1239.95 1210.69" stroke="black" stroke-width="4" stroke-linecap="round" stroke-linejoin="round"/>
<path d="M1288.8 870.115C1299.72 875.558 1313.41 873.757 1313.41 873.757" stroke="black" stroke-width="4" stroke-linecap="round" stroke-linejoin="round"/>
<path d="M1315.44 907.568C1327.09 909.383 1333.45 907.487 1333.45 907.487" stroke="black" stroke-width="4" stroke-linecap="round" stroke-linejoin="round"/>
<path d="M1299.85 889.211C1311.59 892.949 1323.47 891.148 1323.47 891.148" stroke="black" stroke-width="4" stroke-linecap="round" stroke-linejoin="round"/>
</svg>
